# xmcd
#
# Track frame offsets:
#	150
#	20572
#	37643
#	59756
#	79783
#	95629
#	124366
#	145500
#	164141
#	185920
#	205239
#	233519
#	258509
#
# Disc length: 3471 seconds
# Revision: 1
# Processed by: cddbd v1.5.2PL0 Copyright (c) Steve Scherf et al.
# Submitted via: dBpowerAMP V12.0
#
DISCID=b90d8d0d
DTITLE=Kris Pohlmann - New Resolution
DYEAR=2009
DGENRE=Blues
TTITLE0=Feel The Same
TTITLE1=One Chance
TTITLE2=I'll Come Around
TTITLE3=Only One Heart
TTITLE4=Got To Let You Go
TTITLE5=Sorry
TTITLE6=Got To Be The Blues
TTITLE7=You Don't Know Me
TTITLE8=Get Away
TTITLE9=Would It Make A Difference
TTITLE10=Fallin' Down
TTITLE11=Just Can't Make It On My Own
TTITLE12=Bonus
EXTD=
EXTT0=
EXTT1=
EXTT2=
EXTT3=
EXTT4=
EXTT5=
EXTT6=
EXTT7=
EXTT8=
EXTT9=
EXTT10=
EXTT11=
EXTT12=
PLAYORDER=
